<?xml version="1.0" encoding="UTF-8"?>
<svg width="174px" height="125px" viewBox="0 0 174 125" version="1.1" xmlns="http://www.w3.org/2000/svg" xmlns:xlink="http://www.w3.org/1999/xlink">
    <title>Bubble</title>
    <g id="Page-1" stroke="none" stroke-width="1" fill="none" fill-rule="evenodd">
        <g id="Artboard" transform="translate(-115.000000, -302.000000)">
            <g id="Group-3" transform="translate(77.000000, 269.000000)">
                <g id="Bubble" transform="translate(38.493377, 33.484252)">
                    <path d="M150.727819,0.82781457 C158.242512,0.82781457 160.979156,1.58098955 163.729537,3.05190943 C166.416107,4.48870258 168.524542,6.59713814 169.961336,9.28370776 C171.432255,12.0340888 172.18543,14.7707327 172.18543,22.285426 L172.18543,22.285426 L172.18543,76.4011921 C172.18543,80.1887264 170.650229,83.6176953 168.168144,86.0997805 C165.686058,88.5818657 162.25709,90.1170673 158.469555,90.1170673 L158.469555,90.1170673 L146.048287,90.1170673 C145.07584,90.1170673 144.734842,90.2475799 144.382451,90.4360404 C143.966249,90.6586277 143.639611,90.9852655 143.417024,91.4014675 C143.228563,91.7538581 143.098051,92.0948564 143.098051,93.0673034 L143.098051,93.0673034 L143.098051,117.290243 C143.098051,117.976027 142.820082,118.596888 142.370667,119.046303 C141.921252,119.495718 141.300391,119.773687 140.614607,119.773687 C140.066819,119.773687 139.5344,119.592572 139.100241,119.258538 L139.100241,119.258538 L101.575036,90.387413 L22.285426,90.1170673 C14.7707327,90.1170673 12.0340888,89.3638923 9.28370776,87.8929725 C6.59713814,86.4561793 4.48870258,84.3477437 3.05190943,81.6611741 C1.58098955,78.9107931 0.82781457,76.1741492 0.82781457,68.6594559 L0.82781457,68.6594559 L0.82781457,22.285426 C0.82781457,14.7707327 1.58098955,12.0340888 3.05190943,9.28370776 C4.48870258,6.59713814 6.59713814,4.48870258 9.28370776,3.05190943 C12.0340888,1.58098955 14.7707327,0.82781457 22.285426,0.82781457 L22.285426,0.82781457 Z" id="Rectangle" stroke-opacity="0.500710227" stroke="#FFFFFF" stroke-width="1.65562914"></path>
                    <ellipse id="Oval" fill="#5FF2F0" cx="49.2549669" cy="45.4724409" rx="7.45033113" ry="7.44094488"></ellipse>
                    <ellipse id="Oval" fill="#A65FF2" cx="86.5066225" cy="45.4724409" rx="7.45033113" ry="7.44094488"></ellipse>
                    <ellipse id="Oval" fill="#5F86F2" cx="123.758278" cy="45.4724409" rx="7.45033113" ry="7.44094488"></ellipse>
                </g>
            </g>
        </g>
    </g>
</svg>