<?xml version="1.0" encoding="UTF-8"?>
<svg width="143px" height="89px" viewBox="0 0 143 89" version="1.1" xmlns="http://www.w3.org/2000/svg" xmlns:xlink="http://www.w3.org/1999/xlink">
    <title>Eye</title>
    <g id="Page-1" stroke="none" stroke-width="1" fill="none" fill-rule="evenodd">
        <g id="Artboard" transform="translate(-428.000000, -313.000000)">
            <g id="Eye" transform="translate(428.000000, 313.391196)">
                <g id="Group-5" transform="translate(0.000000, 13.608804)">
                    <path d="M71.5,1 C87.6042047,1 102.453016,4.88146428 114.352543,9.95748606 C122.272285,13.3358375 128.884598,17.2427243 133.684921,20.8890086 C138.813546,24.7846674 142,28.3207579 142,30.5 C142,32.6792421 138.813546,36.2153326 133.684921,40.1109914 C128.884598,43.7572757 122.272285,47.6641625 114.352543,51.0425139 C102.453016,56.1185357 87.6042047,60 71.5,60 C55.3957953,60 40.5469837,56.1185357 28.6474573,51.0425139 C20.7277153,47.6641625 14.1154025,43.7572757 9.31507885,40.1109914 C4.18645449,36.2153326 1,32.6792421 1,30.5 C1,28.3207579 4.18645449,24.7846674 9.31507885,20.8890086 C14.1154025,17.2427243 20.7277153,13.3358375 28.6474573,9.95748606 C40.5469837,4.88146428 55.3957953,1 71.5,1 Z" id="Oval" stroke-opacity="0.499562937" stroke="#FFFFFF" stroke-width="2"></path>
                    <circle id="Oval" stroke-opacity="0.5" stroke="#FFFFFF" stroke-width="2" cx="72" cy="31" r="29"></circle>
                    <circle id="Oval" fill-opacity="0.5" fill="#FFFFFF" cx="72" cy="30" r="12"></circle>
                </g>
                <path d="M28.5617945,79.918418 L110.477588,3.53070461 C111.734278,2.35882213 113.703025,2.42757229 114.874908,3.68426239 C116.04679,4.94095249 115.97804,6.90969955 114.72135,8.08158203 L32.8055564,84.4692954 C31.5488663,85.6411779 29.5801192,85.5724277 28.4082367,84.3157376 C27.2363543,83.0590475 27.3051044,81.0903004 28.5617945,79.918418 Z" id="Rectangle" fill="#F25F61"></path>
                <path d="M34.2415723,2.2 L113.441572,81.4 C114.656599,82.6150264 114.656599,84.5849736 113.441572,85.8 C112.226546,87.0150264 110.256599,87.0150264 109.041572,85.8 L29.8415723,6.6 C28.6265458,5.38497355 28.6265458,3.41502645 29.8415723,2.2 C31.0565987,0.98497355 33.0265458,0.98497355 34.2415723,2.2 Z" id="Rectangle" fill="#F25F61"></path>
            </g>
        </g>
    </g>
</svg>