<?xml version="1.0" encoding="UTF-8"?>
<svg width="162px" height="96px" viewBox="0 0 162 96" version="1.1" xmlns="http://www.w3.org/2000/svg" xmlns:xlink="http://www.w3.org/1999/xlink">
    <title>Numbers</title>
    <g id="Page-1" stroke="none" stroke-width="1" fill="none" fill-rule="evenodd" fill-opacity="0.5">
        <g id="Artboard" transform="translate(-715.000000, -309.000000)" fill="#FFFFFF" fill-rule="nonzero">
            <g id="Numbers" transform="translate(715.000000, 309.000000)">
                <g id="100101100110">
                    <polygon id="Path" points="6.36794222 16.8189838 6.36794222 0.239132471 6.1991805 0.239132471 0 2.6532317 0 4.57767872 4.28654768 2.92652595 4.28654768 16.8189838"></polygon>
                    <path d="M23.7278978,10.4762797 L23.7278978,6.59322383 C23.7278978,5.53800436 23.6078894,4.60235112 23.3678728,3.78626412 C23.1278561,2.97017711 22.7828321,2.28124785 22.3328009,1.71947634 C21.8752691,1.15770482 21.3183554,0.730682549 20.6620599,0.438409529 C20.0057643,0.14613651 19.2575873,0 18.417529,0 C17.5849712,0 16.8405445,0.14613651 16.1842489,0.438409529 C15.5279533,0.730682549 14.9747899,1.15770482 14.5247587,1.71947634 C14.0672269,2.28124785 13.7184527,2.97017711 13.478436,3.78626412 C13.2384193,4.60235112 13.118411,5.53800436 13.118411,6.59322383 L13.118411,10.4762797 C13.118411,11.5314991 13.2384193,12.4671524 13.478436,13.2832394 C13.7184527,14.0993264 14.0672269,14.7844599 14.5247587,15.3386399 C14.9822904,15.9080029 15.5410792,16.3350252 16.2011251,16.6197067 C16.8611709,16.9043882 17.6074727,17.046729 18.4400306,17.046729 C19.2800889,17.046729 20.0263907,16.9024903 20.678936,16.6140131 C21.3314814,16.3255358 21.8827696,15.9004114 22.3328009,15.3386399 C22.7828321,14.7844599 23.1278561,14.0993264 23.3678728,13.2832394 C23.6078894,12.4671524 23.7278978,11.5314991 23.7278978,10.4762797 Z M15.2110563,10.054951 C15.2110563,9.85757184 15.2110563,9.66398841 15.2110563,9.47420074 C15.2110563,9.28441306 15.2110563,9.09462539 15.2110563,8.90483771 L15.2110563,6.12634615 C15.2110563,5.35201244 15.2879367,4.67067468 15.4416973,4.08233289 C15.595458,3.4939911 15.8298493,3.01382828 16.1448712,2.64184444 C16.4073894,2.34577566 16.7280367,2.11992833 17.106813,1.96430244 C17.4855893,1.80867654 17.9224946,1.7308636 18.417529,1.7308636 C18.9050629,1.7308636 19.3344677,1.80298291 19.7057435,1.94722155 C20.0770192,2.09146018 20.390166,2.30781813 20.6451837,2.59629539 C20.9077019,2.87718115 21.1158414,3.22828835 21.2696021,3.64961699 C21.4233627,4.07094563 21.5302452,4.5549042 21.5902493,5.10149271 L15.2110563,10.054951 Z M21.6352524,10.9203828 C21.6352524,11.7326741 21.5546218,12.4386842 21.3933607,13.0384133 C21.2320995,13.6381423 20.9789569,14.1239988 20.6339329,14.4959826 C20.3789152,14.7692769 20.0676436,14.9780433 19.7001181,15.1222819 C19.3325925,15.2665206 18.9125634,15.3386399 18.4400306,15.3386399 C17.9899993,15.3386399 17.5849712,15.2722142 17.2249462,15.1393628 C16.8649212,15.0065115 16.5573998,14.8110302 16.3023821,14.5529189 C16.0248628,14.2796247 15.7998472,13.9323132 15.6273352,13.5109846 C15.4548233,13.0896559 15.3348149,12.6019016 15.2673102,12.0477216 L21.6352524,7.11703781 C21.6352524,7.32960001 21.6352524,7.59720063 21.6352524,7.91983968 C21.6352524,8.24247873 21.6352524,8.46073455 21.6352524,8.57460716 L21.6352524,10.9203828 Z" id="Shape"></path>
                    <path d="M37.555108,10.4762797 L37.555108,6.59322383 C37.555108,5.53800436 37.4350997,4.60235112 37.195083,3.78626412 C36.9550663,2.97017711 36.6100424,2.28124785 36.1600111,1.71947634 C35.7024793,1.15770482 35.1455657,0.730682549 34.4892701,0.438409529 C33.8329745,0.14613651 33.0847976,0 32.2447392,0 C31.4121814,0 30.6677547,0.14613651 30.0114591,0.438409529 C29.3551636,0.730682549 28.8020001,1.15770482 28.3519689,1.71947634 C27.8944371,2.28124785 27.5456629,2.97017711 27.3056462,3.78626412 C27.0656296,4.60235112 26.9456212,5.53800436 26.9456212,6.59322383 L26.9456212,10.4762797 C26.9456212,11.5314991 27.0656296,12.4671524 27.3056462,13.2832394 C27.5456629,14.0993264 27.8944371,14.7844599 28.3519689,15.3386399 C28.8095007,15.9080029 29.3682895,16.3350252 30.0283353,16.6197067 C30.6883811,16.9043882 31.434683,17.046729 32.2672408,17.046729 C33.1072991,17.046729 33.8536009,16.9024903 34.5061463,16.6140131 C35.1586916,16.3255358 35.7099799,15.9004114 36.1600111,15.3386399 C36.6100424,14.7844599 36.9550663,14.0993264 37.195083,13.2832394 C37.4350997,12.4671524 37.555108,11.5314991 37.555108,10.4762797 Z M29.0382665,10.054951 C29.0382665,9.85757184 29.0382665,9.66398841 29.0382665,9.47420074 C29.0382665,9.28441306 29.0382665,9.09462539 29.0382665,8.90483771 L29.0382665,6.12634615 C29.0382665,5.35201244 29.1151469,4.67067468 29.2689076,4.08233289 C29.4226682,3.4939911 29.6570595,3.01382828 29.9720814,2.64184444 C30.2345996,2.34577566 30.5552469,2.11992833 30.9340232,1.96430244 C31.3127995,1.80867654 31.7497048,1.7308636 32.2447392,1.7308636 C32.7322731,1.7308636 33.1616779,1.80298291 33.5329537,1.94722155 C33.9042295,2.09146018 34.2173762,2.30781813 34.4723939,2.59629539 C34.7349121,2.87718115 34.9430516,3.22828835 35.0968123,3.64961699 C35.250573,4.07094563 35.3574554,4.5549042 35.4174595,5.10149271 L29.0382665,10.054951 Z M35.4624627,10.9203828 C35.4624627,11.7326741 35.3818321,12.4386842 35.2205709,13.0384133 C35.0593097,13.6381423 34.8061671,14.1239988 34.4611431,14.4959826 C34.2061254,14.7692769 33.8948538,14.9780433 33.5273283,15.1222819 C33.1598028,15.2665206 32.7397736,15.3386399 32.2672408,15.3386399 C31.8172095,15.3386399 31.4121814,15.2722142 31.0521564,15.1393628 C30.6921314,15.0065115 30.38461,14.8110302 30.1295923,14.5529189 C29.8520731,14.2796247 29.6270574,13.9323132 29.4545455,13.5109846 C29.2820335,13.0896559 29.1620251,12.6019016 29.0945205,12.0477216 L35.4624627,7.11703781 C35.4624627,7.32960001 35.4624627,7.59720063 35.4624627,7.91983968 C35.4624627,8.24247873 35.4624627,8.46073455 35.4624627,8.57460716 L35.4624627,10.9203828 Z" id="Shape"></path>
                    <polygon id="Path" points="47.8495729 16.8189838 47.8495729 0.239132471 47.6808112 0.239132471 41.4816307 2.6532317 41.4816307 4.57767872 45.7681783 2.92652595 45.7681783 16.8189838"></polygon>
                    <path d="M65.2095284,10.4762797 L65.2095284,6.59322383 C65.2095284,5.53800436 65.0895201,4.60235112 64.8495034,3.78626412 C64.6094868,2.97017711 64.2644628,2.28124785 63.8144316,1.71947634 C63.3568998,1.15770482 62.7999861,0.730682549 62.1436905,0.438409529 C61.487395,0.14613651 60.739218,0 59.8991597,0 C59.0666018,0 58.3221752,0.14613651 57.6658796,0.438409529 C57.009584,0.730682549 56.4564206,1.15770482 56.0063893,1.71947634 C55.5488576,2.28124785 55.2000833,2.97017711 54.9600667,3.78626412 C54.72005,4.60235112 54.6000417,5.53800436 54.6000417,6.59322383 L54.6000417,10.4762797 C54.6000417,11.5314991 54.72005,12.4671524 54.9600667,13.2832394 C55.2000833,14.0993264 55.5488576,14.7844599 56.0063893,15.3386399 C56.4639211,15.9080029 57.0227099,16.3350252 57.6827557,16.6197067 C58.3428016,16.9043882 59.0891034,17.046729 59.9216612,17.046729 C60.7617196,17.046729 61.5080214,16.9024903 62.1605667,16.6140131 C62.813112,16.3255358 63.3644003,15.9004114 63.8144316,15.3386399 C64.2644628,14.7844599 64.6094868,14.0993264 64.8495034,13.2832394 C65.0895201,12.4671524 65.2095284,11.5314991 65.2095284,10.4762797 Z M56.692687,10.054951 C56.692687,9.85757184 56.692687,9.66398841 56.692687,9.47420074 C56.692687,9.28441306 56.692687,9.09462539 56.692687,8.90483771 L56.692687,6.12634615 C56.692687,5.35201244 56.7695673,4.67067468 56.923328,4.08233289 C57.0770887,3.4939911 57.31148,3.01382828 57.6265018,2.64184444 C57.8890201,2.34577566 58.2096673,2.11992833 58.5884436,1.96430244 C58.9672199,1.80867654 59.4041253,1.7308636 59.8991597,1.7308636 C60.3866935,1.7308636 60.8160983,1.80298291 61.1873741,1.94722155 C61.5586499,2.09146018 61.8717967,2.30781813 62.1268144,2.59629539 C62.3893326,2.87718115 62.597472,3.22828835 62.7512327,3.64961699 C62.9049934,4.07094563 63.0118758,4.5549042 63.07188,5.10149271 L56.692687,10.054951 Z M63.1168831,10.9203828 C63.1168831,11.7326741 63.0362525,12.4386842 62.8749913,13.0384133 C62.7137301,13.6381423 62.4605875,14.1239988 62.1155636,14.4959826 C61.8605459,14.7692769 61.5492743,14.9780433 61.1817487,15.1222819 C60.8142232,15.2665206 60.394194,15.3386399 59.9216612,15.3386399 C59.47163,15.3386399 59.0666018,15.2722142 58.7065768,15.1393628 C58.3465518,15.0065115 58.0390305,14.8110302 57.7840128,14.5529189 C57.5064935,14.2796247 57.2814779,13.9323132 57.1089659,13.5109846 C56.9364539,13.0896559 56.8164456,12.6019016 56.7489409,12.0477216 L63.1168831,7.11703781 C63.1168831,7.32960001 63.1168831,7.59720063 63.1168831,7.91983968 C63.1168831,8.24247873 63.1168831,8.46073455 63.1168831,8.57460716 L63.1168831,10.9203828 Z" id="Shape"></path>
                    <polygon id="Path" points="75.5039933 16.8189838 75.5039933 0.239132471 75.3352316 0.239132471 69.1360511 2.6532317 69.1360511 4.57767872 73.4225988 2.92652595 73.4225988 16.8189838"></polygon>
                    <polygon id="Path" points="89.3312036 16.8189838 89.3312036 0.239132471 89.1624418 0.239132471 82.9632613 2.6532317 82.9632613 4.57767872 87.249809 2.92652595 87.249809 16.8189838"></polygon>
                    <path d="M106.691159,10.4762797 L106.691159,6.59322383 C106.691159,5.53800436 106.571151,4.60235112 106.331134,3.78626412 C106.091117,2.97017711 105.746093,2.28124785 105.296062,1.71947634 C104.83853,1.15770482 104.281617,0.730682549 103.625321,0.438409529 C102.969026,0.14613651 102.220849,0 101.38079,0 C100.548233,0 99.8038058,0.14613651 99.1475102,0.438409529 C98.4912147,0.730682549 97.9380513,1.15770482 97.48802,1.71947634 C97.0304882,2.28124785 96.681714,2.97017711 96.4416973,3.78626412 C96.2016807,4.60235112 96.0816723,5.53800436 96.0816723,6.59322383 L96.0816723,10.4762797 C96.0816723,11.5314991 96.2016807,12.4671524 96.4416973,13.2832394 C96.681714,14.0993264 97.0304882,14.7844599 97.48802,15.3386399 C97.9455518,15.9080029 98.5043406,16.3350252 99.1643864,16.6197067 C99.8244323,16.9043882 100.570734,17.046729 101.403292,17.046729 C102.24335,17.046729 102.989652,16.9024903 103.642197,16.6140131 C104.294743,16.3255358 104.846031,15.9004114 105.296062,15.3386399 C105.746093,14.7844599 106.091117,14.0993264 106.331134,13.2832394 C106.571151,12.4671524 106.691159,11.5314991 106.691159,10.4762797 Z M98.1743177,10.054951 C98.1743177,9.85757184 98.1743177,9.66398841 98.1743177,9.47420074 C98.1743177,9.28441306 98.1743177,9.09462539 98.1743177,8.90483771 L98.1743177,6.12634615 C98.1743177,5.35201244 98.251198,4.67067468 98.4049587,4.08233289 C98.5587194,3.4939911 98.7931106,3.01382828 99.1081325,2.64184444 C99.3706507,2.34577566 99.691298,2.11992833 100.070074,1.96430244 C100.448851,1.80867654 100.885756,1.7308636 101.38079,1.7308636 C101.868324,1.7308636 102.297729,1.80298291 102.669005,1.94722155 C103.040281,2.09146018 103.353427,2.30781813 103.608445,2.59629539 C103.870963,2.87718115 104.079103,3.22828835 104.232863,3.64961699 C104.386624,4.07094563 104.493506,4.5549042 104.553511,5.10149271 L98.1743177,10.054951 Z M104.598514,10.9203828 C104.598514,11.7326741 104.517883,12.4386842 104.356622,13.0384133 C104.195361,13.6381423 103.942218,14.1239988 103.597194,14.4959826 C103.342177,14.7692769 103.030905,14.9780433 102.663379,15.1222819 C102.295854,15.2665206 101.875825,15.3386399 101.403292,15.3386399 C100.953261,15.3386399 100.548233,15.2722142 100.188208,15.1393628 C99.8281825,15.0065115 99.5206612,14.8110302 99.2656434,14.5529189 C98.9881242,14.2796247 98.7631085,13.9323132 98.5905966,13.5109846 C98.4180846,13.0896559 98.2980763,12.6019016 98.2305716,12.0477216 L104.598514,7.11703781 C104.598514,7.32960001 104.598514,7.59720063 104.598514,7.91983968 C104.598514,8.24247873 104.598514,8.46073455 104.598514,8.57460716 L104.598514,10.9203828 Z" id="Shape"></path>
                    <path d="M120.518369,10.4762797 L120.518369,6.59322383 C120.518369,5.53800436 120.398361,4.60235112 120.158344,3.78626412 C119.918328,2.97017711 119.573304,2.28124785 119.123272,1.71947634 C118.665741,1.15770482 118.108827,0.730682549 117.452531,0.438409529 C116.796236,0.14613651 116.048059,0 115.208001,0 C114.375443,0 113.631016,0.14613651 112.97472,0.438409529 C112.318425,0.730682549 111.765261,1.15770482 111.31523,1.71947634 C110.857698,2.28124785 110.508924,2.97017711 110.268908,3.78626412 C110.028891,4.60235112 109.908883,5.53800436 109.908883,6.59322383 L109.908883,10.4762797 C109.908883,11.5314991 110.028891,12.4671524 110.268908,13.2832394 C110.508924,14.0993264 110.857698,14.7844599 111.31523,15.3386399 C111.772762,15.9080029 112.331551,16.3350252 112.991597,16.6197067 C113.651642,16.9043882 114.397944,17.046729 115.230502,17.046729 C116.07056,17.046729 116.816862,16.9024903 117.469408,16.6140131 C118.121953,16.3255358 118.673241,15.9004114 119.123272,15.3386399 C119.573304,14.7844599 119.918328,14.0993264 120.158344,13.2832394 C120.398361,12.4671524 120.518369,11.5314991 120.518369,10.4762797 Z M112.001528,10.054951 C112.001528,9.85757184 112.001528,9.66398841 112.001528,9.47420074 C112.001528,9.28441306 112.001528,9.09462539 112.001528,8.90483771 L112.001528,6.12634615 C112.001528,5.35201244 112.078408,4.67067468 112.232169,4.08233289 C112.38593,3.4939911 112.620321,3.01382828 112.935343,2.64184444 C113.197861,2.34577566 113.518508,2.11992833 113.897285,1.96430244 C114.276061,1.80867654 114.712966,1.7308636 115.208001,1.7308636 C115.695534,1.7308636 116.124939,1.80298291 116.496215,1.94722155 C116.867491,2.09146018 117.180638,2.30781813 117.435655,2.59629539 C117.698173,2.87718115 117.906313,3.22828835 118.060074,3.64961699 C118.213834,4.07094563 118.320717,4.5549042 118.380721,5.10149271 L112.001528,10.054951 Z M118.425724,10.9203828 C118.425724,11.7326741 118.345093,12.4386842 118.183832,13.0384133 C118.022571,13.6381423 117.769428,14.1239988 117.424404,14.4959826 C117.169387,14.7692769 116.858115,14.9780433 116.49059,15.1222819 C116.123064,15.2665206 115.703035,15.3386399 115.230502,15.3386399 C114.780471,15.3386399 114.375443,15.2722142 114.015418,15.1393628 C113.655393,15.0065115 113.347871,14.8110302 113.092854,14.5529189 C112.815334,14.2796247 112.590319,13.9323132 112.417807,13.5109846 C112.245295,13.0896559 112.125286,12.6019016 112.057782,12.0477216 L118.425724,7.11703781 C118.425724,7.32960001 118.425724,7.59720063 118.425724,7.91983968 C118.425724,8.24247873 118.425724,8.46073455 118.425724,8.57460716 L118.425724,10.9203828 Z" id="Shape"></path>
                    <polygon id="Path" points="130.812834 16.8189838 130.812834 0.239132471 130.644073 0.239132471 124.444892 2.6532317 124.444892 4.57767872 128.73144 2.92652595 128.73144 16.8189838"></polygon>
                    <polygon id="Path" points="144.640044 16.8189838 144.640044 0.239132471 144.471283 0.239132471 138.272102 2.6532317 138.272102 4.57767872 142.55865 2.92652595 142.55865 16.8189838"></polygon>
                    <path d="M162,10.4762797 L162,6.59322383 C162,5.53800436 161.879992,4.60235112 161.639975,3.78626412 C161.399958,2.97017711 161.054934,2.28124785 160.604903,1.71947634 C160.147371,1.15770482 159.590458,0.730682549 158.934162,0.438409529 C158.277867,0.14613651 157.52969,0 156.689631,0 C155.857073,0 155.112647,0.14613651 154.456351,0.438409529 C153.800056,0.730682549 153.246892,1.15770482 152.796861,1.71947634 C152.339329,2.28124785 151.990555,2.97017711 151.750538,3.78626412 C151.510522,4.60235112 151.390513,5.53800436 151.390513,6.59322383 L151.390513,10.4762797 C151.390513,11.5314991 151.510522,12.4671524 151.750538,13.2832394 C151.990555,14.0993264 152.339329,14.7844599 152.796861,15.3386399 C153.254393,15.9080029 153.813181,16.3350252 154.473227,16.6197067 C155.133273,16.9043882 155.879575,17.046729 156.712133,17.046729 C157.552191,17.046729 158.298493,16.9024903 158.951038,16.6140131 C159.603584,16.3255358 160.154872,15.9004114 160.604903,15.3386399 C161.054934,14.7844599 161.399958,14.0993264 161.639975,13.2832394 C161.879992,12.4671524 162,11.5314991 162,10.4762797 Z M153.483159,10.054951 C153.483159,9.85757184 153.483159,9.66398841 153.483159,9.47420074 C153.483159,9.28441306 153.483159,9.09462539 153.483159,8.90483771 L153.483159,6.12634615 C153.483159,5.35201244 153.560039,4.67067468 153.7138,4.08233289 C153.86756,3.4939911 154.101952,3.01382828 154.416973,2.64184444 C154.679492,2.34577566 155.000139,2.11992833 155.378915,1.96430244 C155.757692,1.80867654 156.194597,1.7308636 156.689631,1.7308636 C157.177165,1.7308636 157.60657,1.80298291 157.977846,1.94722155 C158.349121,2.09146018 158.662268,2.30781813 158.917286,2.59629539 C159.179804,2.87718115 159.387944,3.22828835 159.541704,3.64961699 C159.695465,4.07094563 159.802347,4.5549042 159.862352,5.10149271 L153.483159,10.054951 Z M159.907355,10.9203828 C159.907355,11.7326741 159.826724,12.4386842 159.665463,13.0384133 C159.504202,13.6381423 159.251059,14.1239988 158.906035,14.4959826 C158.651017,14.7692769 158.339746,14.9780433 157.97222,15.1222819 C157.604695,15.2665206 157.184666,15.3386399 156.712133,15.3386399 C156.262102,15.3386399 155.857073,15.2722142 155.497048,15.1393628 C155.137023,15.0065115 154.829502,14.8110302 154.574484,14.5529189 C154.296965,14.2796247 154.071949,13.9323132 153.899437,13.5109846 C153.726925,13.0896559 153.606917,12.6019016 153.539412,12.0477216 L159.907355,7.11703781 C159.907355,7.32960001 159.907355,7.59720063 159.907355,7.91983968 C159.907355,8.24247873 159.907355,8.46073455 159.907355,8.57460716 L159.907355,10.9203828 Z" id="Shape"></path>
                </g>
                <g id="100101100110" transform="translate(0.000000, 39.476729)">
                    <polygon id="Path" points="6.36794222 16.8189838 6.36794222 0.239132471 6.1991805 0.239132471 0 2.6532317 0 4.57767872 4.28654768 2.92652595 4.28654768 16.8189838"></polygon>
                    <path d="M23.7278978,10.4762797 L23.7278978,6.59322383 C23.7278978,5.53800436 23.6078894,4.60235112 23.3678728,3.78626412 C23.1278561,2.97017711 22.7828321,2.28124785 22.3328009,1.71947634 C21.8752691,1.15770482 21.3183554,0.730682549 20.6620599,0.438409529 C20.0057643,0.14613651 19.2575873,0 18.417529,0 C17.5849712,0 16.8405445,0.14613651 16.1842489,0.438409529 C15.5279533,0.730682549 14.9747899,1.15770482 14.5247587,1.71947634 C14.0672269,2.28124785 13.7184527,2.97017711 13.478436,3.78626412 C13.2384193,4.60235112 13.118411,5.53800436 13.118411,6.59322383 L13.118411,10.4762797 C13.118411,11.5314991 13.2384193,12.4671524 13.478436,13.2832394 C13.7184527,14.0993264 14.0672269,14.7844599 14.5247587,15.3386399 C14.9822904,15.9080029 15.5410792,16.3350252 16.2011251,16.6197067 C16.8611709,16.9043882 17.6074727,17.046729 18.4400306,17.046729 C19.2800889,17.046729 20.0263907,16.9024903 20.678936,16.6140131 C21.3314814,16.3255358 21.8827696,15.9004114 22.3328009,15.3386399 C22.7828321,14.7844599 23.1278561,14.0993264 23.3678728,13.2832394 C23.6078894,12.4671524 23.7278978,11.5314991 23.7278978,10.4762797 Z M15.2110563,10.054951 C15.2110563,9.85757184 15.2110563,9.66398841 15.2110563,9.47420074 C15.2110563,9.28441306 15.2110563,9.09462539 15.2110563,8.90483771 L15.2110563,6.12634615 C15.2110563,5.35201244 15.2879367,4.67067468 15.4416973,4.08233289 C15.595458,3.4939911 15.8298493,3.01382828 16.1448712,2.64184444 C16.4073894,2.34577566 16.7280367,2.11992833 17.106813,1.96430244 C17.4855893,1.80867654 17.9224946,1.7308636 18.417529,1.7308636 C18.9050629,1.7308636 19.3344677,1.80298291 19.7057435,1.94722155 C20.0770192,2.09146018 20.390166,2.30781813 20.6451837,2.59629539 C20.9077019,2.87718115 21.1158414,3.22828835 21.2696021,3.64961699 C21.4233627,4.07094563 21.5302452,4.5549042 21.5902493,5.10149271 L15.2110563,10.054951 Z M21.6352524,10.9203828 C21.6352524,11.7326741 21.5546218,12.4386842 21.3933607,13.0384133 C21.2320995,13.6381423 20.9789569,14.1239988 20.6339329,14.4959826 C20.3789152,14.7692769 20.0676436,14.9780433 19.7001181,15.1222819 C19.3325925,15.2665206 18.9125634,15.3386399 18.4400306,15.3386399 C17.9899993,15.3386399 17.5849712,15.2722142 17.2249462,15.1393628 C16.8649212,15.0065115 16.5573998,14.8110302 16.3023821,14.5529189 C16.0248628,14.2796247 15.7998472,13.9323132 15.6273352,13.5109846 C15.4548233,13.0896559 15.3348149,12.6019016 15.2673102,12.0477216 L21.6352524,7.11703781 C21.6352524,7.32960001 21.6352524,7.59720063 21.6352524,7.91983968 C21.6352524,8.24247873 21.6352524,8.46073455 21.6352524,8.57460716 L21.6352524,10.9203828 Z" id="Shape"></path>
                    <path d="M37.555108,10.4762797 L37.555108,6.59322383 C37.555108,5.53800436 37.4350997,4.60235112 37.195083,3.78626412 C36.9550663,2.97017711 36.6100424,2.28124785 36.1600111,1.71947634 C35.7024793,1.15770482 35.1455657,0.730682549 34.4892701,0.438409529 C33.8329745,0.14613651 33.0847976,0 32.2447392,0 C31.4121814,0 30.6677547,0.14613651 30.0114591,0.438409529 C29.3551636,0.730682549 28.8020001,1.15770482 28.3519689,1.71947634 C27.8944371,2.28124785 27.5456629,2.97017711 27.3056462,3.78626412 C27.0656296,4.60235112 26.9456212,5.53800436 26.9456212,6.59322383 L26.9456212,10.4762797 C26.9456212,11.5314991 27.0656296,12.4671524 27.3056462,13.2832394 C27.5456629,14.0993264 27.8944371,14.7844599 28.3519689,15.3386399 C28.8095007,15.9080029 29.3682895,16.3350252 30.0283353,16.6197067 C30.6883811,16.9043882 31.434683,17.046729 32.2672408,17.046729 C33.1072991,17.046729 33.8536009,16.9024903 34.5061463,16.6140131 C35.1586916,16.3255358 35.7099799,15.9004114 36.1600111,15.3386399 C36.6100424,14.7844599 36.9550663,14.0993264 37.195083,13.2832394 C37.4350997,12.4671524 37.555108,11.5314991 37.555108,10.4762797 Z M29.0382665,10.054951 C29.0382665,9.85757184 29.0382665,9.66398841 29.0382665,9.47420074 C29.0382665,9.28441306 29.0382665,9.09462539 29.0382665,8.90483771 L29.0382665,6.12634615 C29.0382665,5.35201244 29.1151469,4.67067468 29.2689076,4.08233289 C29.4226682,3.4939911 29.6570595,3.01382828 29.9720814,2.64184444 C30.2345996,2.34577566 30.5552469,2.11992833 30.9340232,1.96430244 C31.3127995,1.80867654 31.7497048,1.7308636 32.2447392,1.7308636 C32.7322731,1.7308636 33.1616779,1.80298291 33.5329537,1.94722155 C33.9042295,2.09146018 34.2173762,2.30781813 34.4723939,2.59629539 C34.7349121,2.87718115 34.9430516,3.22828835 35.0968123,3.64961699 C35.250573,4.07094563 35.3574554,4.5549042 35.4174595,5.10149271 L29.0382665,10.054951 Z M35.4624627,10.9203828 C35.4624627,11.7326741 35.3818321,12.4386842 35.2205709,13.0384133 C35.0593097,13.6381423 34.8061671,14.1239988 34.4611431,14.4959826 C34.2061254,14.7692769 33.8948538,14.9780433 33.5273283,15.1222819 C33.1598028,15.2665206 32.7397736,15.3386399 32.2672408,15.3386399 C31.8172095,15.3386399 31.4121814,15.2722142 31.0521564,15.1393628 C30.6921314,15.0065115 30.38461,14.8110302 30.1295923,14.5529189 C29.8520731,14.2796247 29.6270574,13.9323132 29.4545455,13.5109846 C29.2820335,13.0896559 29.1620251,12.6019016 29.0945205,12.0477216 L35.4624627,7.11703781 C35.4624627,7.32960001 35.4624627,7.59720063 35.4624627,7.91983968 C35.4624627,8.24247873 35.4624627,8.46073455 35.4624627,8.57460716 L35.4624627,10.9203828 Z" id="Shape"></path>
                    <polygon id="Path" points="47.8495729 16.8189838 47.8495729 0.239132471 47.6808112 0.239132471 41.4816307 2.6532317 41.4816307 4.57767872 45.7681783 2.92652595 45.7681783 16.8189838"></polygon>
                    <path d="M65.2095284,10.4762797 L65.2095284,6.59322383 C65.2095284,5.53800436 65.0895201,4.60235112 64.8495034,3.78626412 C64.6094868,2.97017711 64.2644628,2.28124785 63.8144316,1.71947634 C63.3568998,1.15770482 62.7999861,0.730682549 62.1436905,0.438409529 C61.487395,0.14613651 60.739218,0 59.8991597,0 C59.0666018,0 58.3221752,0.14613651 57.6658796,0.438409529 C57.009584,0.730682549 56.4564206,1.15770482 56.0063893,1.71947634 C55.5488576,2.28124785 55.2000833,2.97017711 54.9600667,3.78626412 C54.72005,4.60235112 54.6000417,5.53800436 54.6000417,6.59322383 L54.6000417,10.4762797 C54.6000417,11.5314991 54.72005,12.4671524 54.9600667,13.2832394 C55.2000833,14.0993264 55.5488576,14.7844599 56.0063893,15.3386399 C56.4639211,15.9080029 57.0227099,16.3350252 57.6827557,16.6197067 C58.3428016,16.9043882 59.0891034,17.046729 59.9216612,17.046729 C60.7617196,17.046729 61.5080214,16.9024903 62.1605667,16.6140131 C62.813112,16.3255358 63.3644003,15.9004114 63.8144316,15.3386399 C64.2644628,14.7844599 64.6094868,14.0993264 64.8495034,13.2832394 C65.0895201,12.4671524 65.2095284,11.5314991 65.2095284,10.4762797 Z M56.692687,10.054951 C56.692687,9.85757184 56.692687,9.66398841 56.692687,9.47420074 C56.692687,9.28441306 56.692687,9.09462539 56.692687,8.90483771 L56.692687,6.12634615 C56.692687,5.35201244 56.7695673,4.67067468 56.923328,4.08233289 C57.0770887,3.4939911 57.31148,3.01382828 57.6265018,2.64184444 C57.8890201,2.34577566 58.2096673,2.11992833 58.5884436,1.96430244 C58.9672199,1.80867654 59.4041253,1.7308636 59.8991597,1.7308636 C60.3866935,1.7308636 60.8160983,1.80298291 61.1873741,1.94722155 C61.5586499,2.09146018 61.8717967,2.30781813 62.1268144,2.59629539 C62.3893326,2.87718115 62.597472,3.22828835 62.7512327,3.64961699 C62.9049934,4.07094563 63.0118758,4.5549042 63.07188,5.10149271 L56.692687,10.054951 Z M63.1168831,10.9203828 C63.1168831,11.7326741 63.0362525,12.4386842 62.8749913,13.0384133 C62.7137301,13.6381423 62.4605875,14.1239988 62.1155636,14.4959826 C61.8605459,14.7692769 61.5492743,14.9780433 61.1817487,15.1222819 C60.8142232,15.2665206 60.394194,15.3386399 59.9216612,15.3386399 C59.47163,15.3386399 59.0666018,15.2722142 58.7065768,15.1393628 C58.3465518,15.0065115 58.0390305,14.8110302 57.7840128,14.5529189 C57.5064935,14.2796247 57.2814779,13.9323132 57.1089659,13.5109846 C56.9364539,13.0896559 56.8164456,12.6019016 56.7489409,12.0477216 L63.1168831,7.11703781 C63.1168831,7.32960001 63.1168831,7.59720063 63.1168831,7.91983968 C63.1168831,8.24247873 63.1168831,8.46073455 63.1168831,8.57460716 L63.1168831,10.9203828 Z" id="Shape"></path>
                    <polygon id="Path" points="75.5039933 16.8189838 75.5039933 0.239132471 75.3352316 0.239132471 69.1360511 2.6532317 69.1360511 4.57767872 73.4225988 2.92652595 73.4225988 16.8189838"></polygon>
                    <polygon id="Path" points="89.3312036 16.8189838 89.3312036 0.239132471 89.1624418 0.239132471 82.9632613 2.6532317 82.9632613 4.57767872 87.249809 2.92652595 87.249809 16.8189838"></polygon>
                    <path d="M106.691159,10.4762797 L106.691159,6.59322383 C106.691159,5.53800436 106.571151,4.60235112 106.331134,3.78626412 C106.091117,2.97017711 105.746093,2.28124785 105.296062,1.71947634 C104.83853,1.15770482 104.281617,0.730682549 103.625321,0.438409529 C102.969026,0.14613651 102.220849,0 101.38079,0 C100.548233,0 99.8038058,0.14613651 99.1475102,0.438409529 C98.4912147,0.730682549 97.9380513,1.15770482 97.48802,1.71947634 C97.0304882,2.28124785 96.681714,2.97017711 96.4416973,3.78626412 C96.2016807,4.60235112 96.0816723,5.53800436 96.0816723,6.59322383 L96.0816723,10.4762797 C96.0816723,11.5314991 96.2016807,12.4671524 96.4416973,13.2832394 C96.681714,14.0993264 97.0304882,14.7844599 97.48802,15.3386399 C97.9455518,15.9080029 98.5043406,16.3350252 99.1643864,16.6197067 C99.8244323,16.9043882 100.570734,17.046729 101.403292,17.046729 C102.24335,17.046729 102.989652,16.9024903 103.642197,16.6140131 C104.294743,16.3255358 104.846031,15.9004114 105.296062,15.3386399 C105.746093,14.7844599 106.091117,14.0993264 106.331134,13.2832394 C106.571151,12.4671524 106.691159,11.5314991 106.691159,10.4762797 Z M98.1743177,10.054951 C98.1743177,9.85757184 98.1743177,9.66398841 98.1743177,9.47420074 C98.1743177,9.28441306 98.1743177,9.09462539 98.1743177,8.90483771 L98.1743177,6.12634615 C98.1743177,5.35201244 98.251198,4.67067468 98.4049587,4.08233289 C98.5587194,3.4939911 98.7931106,3.01382828 99.1081325,2.64184444 C99.3706507,2.34577566 99.691298,2.11992833 100.070074,1.96430244 C100.448851,1.80867654 100.885756,1.7308636 101.38079,1.7308636 C101.868324,1.7308636 102.297729,1.80298291 102.669005,1.94722155 C103.040281,2.09146018 103.353427,2.30781813 103.608445,2.59629539 C103.870963,2.87718115 104.079103,3.22828835 104.232863,3.64961699 C104.386624,4.07094563 104.493506,4.5549042 104.553511,5.10149271 L98.1743177,10.054951 Z M104.598514,10.9203828 C104.598514,11.7326741 104.517883,12.4386842 104.356622,13.0384133 C104.195361,13.6381423 103.942218,14.1239988 103.597194,14.4959826 C103.342177,14.7692769 103.030905,14.9780433 102.663379,15.1222819 C102.295854,15.2665206 101.875825,15.3386399 101.403292,15.3386399 C100.953261,15.3386399 100.548233,15.2722142 100.188208,15.1393628 C99.8281825,15.0065115 99.5206612,14.8110302 99.2656434,14.5529189 C98.9881242,14.2796247 98.7631085,13.9323132 98.5905966,13.5109846 C98.4180846,13.0896559 98.2980763,12.6019016 98.2305716,12.0477216 L104.598514,7.11703781 C104.598514,7.32960001 104.598514,7.59720063 104.598514,7.91983968 C104.598514,8.24247873 104.598514,8.46073455 104.598514,8.57460716 L104.598514,10.9203828 Z" id="Shape"></path>
                    <path d="M120.518369,10.4762797 L120.518369,6.59322383 C120.518369,5.53800436 120.398361,4.60235112 120.158344,3.78626412 C119.918328,2.97017711 119.573304,2.28124785 119.123272,1.71947634 C118.665741,1.15770482 118.108827,0.730682549 117.452531,0.438409529 C116.796236,0.14613651 116.048059,0 115.208001,0 C114.375443,0 113.631016,0.14613651 112.97472,0.438409529 C112.318425,0.730682549 111.765261,1.15770482 111.31523,1.71947634 C110.857698,2.28124785 110.508924,2.97017711 110.268908,3.78626412 C110.028891,4.60235112 109.908883,5.53800436 109.908883,6.59322383 L109.908883,10.4762797 C109.908883,11.5314991 110.028891,12.4671524 110.268908,13.2832394 C110.508924,14.0993264 110.857698,14.7844599 111.31523,15.3386399 C111.772762,15.9080029 112.331551,16.3350252 112.991597,16.6197067 C113.651642,16.9043882 114.397944,17.046729 115.230502,17.046729 C116.07056,17.046729 116.816862,16.9024903 117.469408,16.6140131 C118.121953,16.3255358 118.673241,15.9004114 119.123272,15.3386399 C119.573304,14.7844599 119.918328,14.0993264 120.158344,13.2832394 C120.398361,12.4671524 120.518369,11.5314991 120.518369,10.4762797 Z M112.001528,10.054951 C112.001528,9.85757184 112.001528,9.66398841 112.001528,9.47420074 C112.001528,9.28441306 112.001528,9.09462539 112.001528,8.90483771 L112.001528,6.12634615 C112.001528,5.35201244 112.078408,4.67067468 112.232169,4.08233289 C112.38593,3.4939911 112.620321,3.01382828 112.935343,2.64184444 C113.197861,2.34577566 113.518508,2.11992833 113.897285,1.96430244 C114.276061,1.80867654 114.712966,1.7308636 115.208001,1.7308636 C115.695534,1.7308636 116.124939,1.80298291 116.496215,1.94722155 C116.867491,2.09146018 117.180638,2.30781813 117.435655,2.59629539 C117.698173,2.87718115 117.906313,3.22828835 118.060074,3.64961699 C118.213834,4.07094563 118.320717,4.5549042 118.380721,5.10149271 L112.001528,10.054951 Z M118.425724,10.9203828 C118.425724,11.7326741 118.345093,12.4386842 118.183832,13.0384133 C118.022571,13.6381423 117.769428,14.1239988 117.424404,14.4959826 C117.169387,14.7692769 116.858115,14.9780433 116.49059,15.1222819 C116.123064,15.2665206 115.703035,15.3386399 115.230502,15.3386399 C114.780471,15.3386399 114.375443,15.2722142 114.015418,15.1393628 C113.655393,15.0065115 113.347871,14.8110302 113.092854,14.5529189 C112.815334,14.2796247 112.590319,13.9323132 112.417807,13.5109846 C112.245295,13.0896559 112.125286,12.6019016 112.057782,12.0477216 L118.425724,7.11703781 C118.425724,7.32960001 118.425724,7.59720063 118.425724,7.91983968 C118.425724,8.24247873 118.425724,8.46073455 118.425724,8.57460716 L118.425724,10.9203828 Z" id="Shape"></path>
                    <polygon id="Path" points="130.812834 16.8189838 130.812834 0.239132471 130.644073 0.239132471 124.444892 2.6532317 124.444892 4.57767872 128.73144 2.92652595 128.73144 16.8189838"></polygon>
                    <polygon id="Path" points="144.640044 16.8189838 144.640044 0.239132471 144.471283 0.239132471 138.272102 2.6532317 138.272102 4.57767872 142.55865 2.92652595 142.55865 16.8189838"></polygon>
                    <path d="M162,10.4762797 L162,6.59322383 C162,5.53800436 161.879992,4.60235112 161.639975,3.78626412 C161.399958,2.97017711 161.054934,2.28124785 160.604903,1.71947634 C160.147371,1.15770482 159.590458,0.730682549 158.934162,0.438409529 C158.277867,0.14613651 157.52969,0 156.689631,0 C155.857073,0 155.112647,0.14613651 154.456351,0.438409529 C153.800056,0.730682549 153.246892,1.15770482 152.796861,1.71947634 C152.339329,2.28124785 151.990555,2.97017711 151.750538,3.78626412 C151.510522,4.60235112 151.390513,5.53800436 151.390513,6.59322383 L151.390513,10.4762797 C151.390513,11.5314991 151.510522,12.4671524 151.750538,13.2832394 C151.990555,14.0993264 152.339329,14.7844599 152.796861,15.3386399 C153.254393,15.9080029 153.813181,16.3350252 154.473227,16.6197067 C155.133273,16.9043882 155.879575,17.046729 156.712133,17.046729 C157.552191,17.046729 158.298493,16.9024903 158.951038,16.6140131 C159.603584,16.3255358 160.154872,15.9004114 160.604903,15.3386399 C161.054934,14.7844599 161.399958,14.0993264 161.639975,13.2832394 C161.879992,12.4671524 162,11.5314991 162,10.4762797 Z M153.483159,10.054951 C153.483159,9.85757184 153.483159,9.66398841 153.483159,9.47420074 C153.483159,9.28441306 153.483159,9.09462539 153.483159,8.90483771 L153.483159,6.12634615 C153.483159,5.35201244 153.560039,4.67067468 153.7138,4.08233289 C153.86756,3.4939911 154.101952,3.01382828 154.416973,2.64184444 C154.679492,2.34577566 155.000139,2.11992833 155.378915,1.96430244 C155.757692,1.80867654 156.194597,1.7308636 156.689631,1.7308636 C157.177165,1.7308636 157.60657,1.80298291 157.977846,1.94722155 C158.349121,2.09146018 158.662268,2.30781813 158.917286,2.59629539 C159.179804,2.87718115 159.387944,3.22828835 159.541704,3.64961699 C159.695465,4.07094563 159.802347,4.5549042 159.862352,5.10149271 L153.483159,10.054951 Z M159.907355,10.9203828 C159.907355,11.7326741 159.826724,12.4386842 159.665463,13.0384133 C159.504202,13.6381423 159.251059,14.1239988 158.906035,14.4959826 C158.651017,14.7692769 158.339746,14.9780433 157.97222,15.1222819 C157.604695,15.2665206 157.184666,15.3386399 156.712133,15.3386399 C156.262102,15.3386399 155.857073,15.2722142 155.497048,15.1393628 C155.137023,15.0065115 154.829502,14.8110302 154.574484,14.5529189 C154.296965,14.2796247 154.071949,13.9323132 153.899437,13.5109846 C153.726925,13.0896559 153.606917,12.6019016 153.539412,12.0477216 L159.907355,7.11703781 C159.907355,7.32960001 159.907355,7.59720063 159.907355,7.91983968 C159.907355,8.24247873 159.907355,8.46073455 159.907355,8.57460716 L159.907355,10.9203828 Z" id="Shape"></path>
                </g>
                <g id="100101100110" transform="translate(0.000000, 78.953458)">
                    <polygon id="Path" points="6.36794222 16.8189838 6.36794222 0.239132471 6.1991805 0.239132471 0 2.6532317 0 4.57767872 4.28654768 2.92652595 4.28654768 16.8189838"></polygon>
                    <path d="M23.7278978,10.4762797 L23.7278978,6.59322383 C23.7278978,5.53800436 23.6078894,4.60235112 23.3678728,3.78626412 C23.1278561,2.97017711 22.7828321,2.28124785 22.3328009,1.71947634 C21.8752691,1.15770482 21.3183554,0.730682549 20.6620599,0.438409529 C20.0057643,0.14613651 19.2575873,0 18.417529,0 C17.5849712,0 16.8405445,0.14613651 16.1842489,0.438409529 C15.5279533,0.730682549 14.9747899,1.15770482 14.5247587,1.71947634 C14.0672269,2.28124785 13.7184527,2.97017711 13.478436,3.78626412 C13.2384193,4.60235112 13.118411,5.53800436 13.118411,6.59322383 L13.118411,10.4762797 C13.118411,11.5314991 13.2384193,12.4671524 13.478436,13.2832394 C13.7184527,14.0993264 14.0672269,14.7844599 14.5247587,15.3386399 C14.9822904,15.9080029 15.5410792,16.3350252 16.2011251,16.6197067 C16.8611709,16.9043882 17.6074727,17.046729 18.4400306,17.046729 C19.2800889,17.046729 20.0263907,16.9024903 20.678936,16.6140131 C21.3314814,16.3255358 21.8827696,15.9004114 22.3328009,15.3386399 C22.7828321,14.7844599 23.1278561,14.0993264 23.3678728,13.2832394 C23.6078894,12.4671524 23.7278978,11.5314991 23.7278978,10.4762797 Z M15.2110563,10.054951 C15.2110563,9.85757184 15.2110563,9.66398841 15.2110563,9.47420074 C15.2110563,9.28441306 15.2110563,9.09462539 15.2110563,8.90483771 L15.2110563,6.12634615 C15.2110563,5.35201244 15.2879367,4.67067468 15.4416973,4.08233289 C15.595458,3.4939911 15.8298493,3.01382828 16.1448712,2.64184444 C16.4073894,2.34577566 16.7280367,2.11992833 17.106813,1.96430244 C17.4855893,1.80867654 17.9224946,1.7308636 18.417529,1.7308636 C18.9050629,1.7308636 19.3344677,1.80298291 19.7057435,1.94722155 C20.0770192,2.09146018 20.390166,2.30781813 20.6451837,2.59629539 C20.9077019,2.87718115 21.1158414,3.22828835 21.2696021,3.64961699 C21.4233627,4.07094563 21.5302452,4.5549042 21.5902493,5.10149271 L15.2110563,10.054951 Z M21.6352524,10.9203828 C21.6352524,11.7326741 21.5546218,12.4386842 21.3933607,13.0384133 C21.2320995,13.6381423 20.9789569,14.1239988 20.6339329,14.4959826 C20.3789152,14.7692769 20.0676436,14.9780433 19.7001181,15.1222819 C19.3325925,15.2665206 18.9125634,15.3386399 18.4400306,15.3386399 C17.9899993,15.3386399 17.5849712,15.2722142 17.2249462,15.1393628 C16.8649212,15.0065115 16.5573998,14.8110302 16.3023821,14.5529189 C16.0248628,14.2796247 15.7998472,13.9323132 15.6273352,13.5109846 C15.4548233,13.0896559 15.3348149,12.6019016 15.2673102,12.0477216 L21.6352524,7.11703781 C21.6352524,7.32960001 21.6352524,7.59720063 21.6352524,7.91983968 C21.6352524,8.24247873 21.6352524,8.46073455 21.6352524,8.57460716 L21.6352524,10.9203828 Z" id="Shape"></path>
                    <path d="M37.555108,10.4762797 L37.555108,6.59322383 C37.555108,5.53800436 37.4350997,4.60235112 37.195083,3.78626412 C36.9550663,2.97017711 36.6100424,2.28124785 36.1600111,1.71947634 C35.7024793,1.15770482 35.1455657,0.730682549 34.4892701,0.438409529 C33.8329745,0.14613651 33.0847976,0 32.2447392,0 C31.4121814,0 30.6677547,0.14613651 30.0114591,0.438409529 C29.3551636,0.730682549 28.8020001,1.15770482 28.3519689,1.71947634 C27.8944371,2.28124785 27.5456629,2.97017711 27.3056462,3.78626412 C27.0656296,4.60235112 26.9456212,5.53800436 26.9456212,6.59322383 L26.9456212,10.4762797 C26.9456212,11.5314991 27.0656296,12.4671524 27.3056462,13.2832394 C27.5456629,14.0993264 27.8944371,14.7844599 28.3519689,15.3386399 C28.8095007,15.9080029 29.3682895,16.3350252 30.0283353,16.6197067 C30.6883811,16.9043882 31.434683,17.046729 32.2672408,17.046729 C33.1072991,17.046729 33.8536009,16.9024903 34.5061463,16.6140131 C35.1586916,16.3255358 35.7099799,15.9004114 36.1600111,15.3386399 C36.6100424,14.7844599 36.9550663,14.0993264 37.195083,13.2832394 C37.4350997,12.4671524 37.555108,11.5314991 37.555108,10.4762797 Z M29.0382665,10.054951 C29.0382665,9.85757184 29.0382665,9.66398841 29.0382665,9.47420074 C29.0382665,9.28441306 29.0382665,9.09462539 29.0382665,8.90483771 L29.0382665,6.12634615 C29.0382665,5.35201244 29.1151469,4.67067468 29.2689076,4.08233289 C29.4226682,3.4939911 29.6570595,3.01382828 29.9720814,2.64184444 C30.2345996,2.34577566 30.5552469,2.11992833 30.9340232,1.96430244 C31.3127995,1.80867654 31.7497048,1.7308636 32.2447392,1.7308636 C32.7322731,1.7308636 33.1616779,1.80298291 33.5329537,1.94722155 C33.9042295,2.09146018 34.2173762,2.30781813 34.4723939,2.59629539 C34.7349121,2.87718115 34.9430516,3.22828835 35.0968123,3.64961699 C35.250573,4.07094563 35.3574554,4.5549042 35.4174595,5.10149271 L29.0382665,10.054951 Z M35.4624627,10.9203828 C35.4624627,11.7326741 35.3818321,12.4386842 35.2205709,13.0384133 C35.0593097,13.6381423 34.8061671,14.1239988 34.4611431,14.4959826 C34.2061254,14.7692769 33.8948538,14.9780433 33.5273283,15.1222819 C33.1598028,15.2665206 32.7397736,15.3386399 32.2672408,15.3386399 C31.8172095,15.3386399 31.4121814,15.2722142 31.0521564,15.1393628 C30.6921314,15.0065115 30.38461,14.8110302 30.1295923,14.5529189 C29.8520731,14.2796247 29.6270574,13.9323132 29.4545455,13.5109846 C29.2820335,13.0896559 29.1620251,12.6019016 29.0945205,12.0477216 L35.4624627,7.11703781 C35.4624627,7.32960001 35.4624627,7.59720063 35.4624627,7.91983968 C35.4624627,8.24247873 35.4624627,8.46073455 35.4624627,8.57460716 L35.4624627,10.9203828 Z" id="Shape"></path>
                    <polygon id="Path" points="47.8495729 16.8189838 47.8495729 0.239132471 47.6808112 0.239132471 41.4816307 2.6532317 41.4816307 4.57767872 45.7681783 2.92652595 45.7681783 16.8189838"></polygon>
                    <path d="M65.2095284,10.4762797 L65.2095284,6.59322383 C65.2095284,5.53800436 65.0895201,4.60235112 64.8495034,3.78626412 C64.6094868,2.97017711 64.2644628,2.28124785 63.8144316,1.71947634 C63.3568998,1.15770482 62.7999861,0.730682549 62.1436905,0.438409529 C61.487395,0.14613651 60.739218,0 59.8991597,0 C59.0666018,0 58.3221752,0.14613651 57.6658796,0.438409529 C57.009584,0.730682549 56.4564206,1.15770482 56.0063893,1.71947634 C55.5488576,2.28124785 55.2000833,2.97017711 54.9600667,3.78626412 C54.72005,4.60235112 54.6000417,5.53800436 54.6000417,6.59322383 L54.6000417,10.4762797 C54.6000417,11.5314991 54.72005,12.4671524 54.9600667,13.2832394 C55.2000833,14.0993264 55.5488576,14.7844599 56.0063893,15.3386399 C56.4639211,15.9080029 57.0227099,16.3350252 57.6827557,16.6197067 C58.3428016,16.9043882 59.0891034,17.046729 59.9216612,17.046729 C60.7617196,17.046729 61.5080214,16.9024903 62.1605667,16.6140131 C62.813112,16.3255358 63.3644003,15.9004114 63.8144316,15.3386399 C64.2644628,14.7844599 64.6094868,14.0993264 64.8495034,13.2832394 C65.0895201,12.4671524 65.2095284,11.5314991 65.2095284,10.4762797 Z M56.692687,10.054951 C56.692687,9.85757184 56.692687,9.66398841 56.692687,9.47420074 C56.692687,9.28441306 56.692687,9.09462539 56.692687,8.90483771 L56.692687,6.12634615 C56.692687,5.35201244 56.7695673,4.67067468 56.923328,4.08233289 C57.0770887,3.4939911 57.31148,3.01382828 57.6265018,2.64184444 C57.8890201,2.34577566 58.2096673,2.11992833 58.5884436,1.96430244 C58.9672199,1.80867654 59.4041253,1.7308636 59.8991597,1.7308636 C60.3866935,1.7308636 60.8160983,1.80298291 61.1873741,1.94722155 C61.5586499,2.09146018 61.8717967,2.30781813 62.1268144,2.59629539 C62.3893326,2.87718115 62.597472,3.22828835 62.7512327,3.64961699 C62.9049934,4.07094563 63.0118758,4.5549042 63.07188,5.10149271 L56.692687,10.054951 Z M63.1168831,10.9203828 C63.1168831,11.7326741 63.0362525,12.4386842 62.8749913,13.0384133 C62.7137301,13.6381423 62.4605875,14.1239988 62.1155636,14.4959826 C61.8605459,14.7692769 61.5492743,14.9780433 61.1817487,15.1222819 C60.8142232,15.2665206 60.394194,15.3386399 59.9216612,15.3386399 C59.47163,15.3386399 59.0666018,15.2722142 58.7065768,15.1393628 C58.3465518,15.0065115 58.0390305,14.8110302 57.7840128,14.5529189 C57.5064935,14.2796247 57.2814779,13.9323132 57.1089659,13.5109846 C56.9364539,13.0896559 56.8164456,12.6019016 56.7489409,12.0477216 L63.1168831,7.11703781 C63.1168831,7.32960001 63.1168831,7.59720063 63.1168831,7.91983968 C63.1168831,8.24247873 63.1168831,8.46073455 63.1168831,8.57460716 L63.1168831,10.9203828 Z" id="Shape"></path>
                    <polygon id="Path" points="75.5039933 16.8189838 75.5039933 0.239132471 75.3352316 0.239132471 69.1360511 2.6532317 69.1360511 4.57767872 73.4225988 2.92652595 73.4225988 16.8189838"></polygon>
                    <polygon id="Path" points="89.3312036 16.8189838 89.3312036 0.239132471 89.1624418 0.239132471 82.9632613 2.6532317 82.9632613 4.57767872 87.249809 2.92652595 87.249809 16.8189838"></polygon>
                    <path d="M106.691159,10.4762797 L106.691159,6.59322383 C106.691159,5.53800436 106.571151,4.60235112 106.331134,3.78626412 C106.091117,2.97017711 105.746093,2.28124785 105.296062,1.71947634 C104.83853,1.15770482 104.281617,0.730682549 103.625321,0.438409529 C102.969026,0.14613651 102.220849,0 101.38079,0 C100.548233,0 99.8038058,0.14613651 99.1475102,0.438409529 C98.4912147,0.730682549 97.9380513,1.15770482 97.48802,1.71947634 C97.0304882,2.28124785 96.681714,2.97017711 96.4416973,3.78626412 C96.2016807,4.60235112 96.0816723,5.53800436 96.0816723,6.59322383 L96.0816723,10.4762797 C96.0816723,11.5314991 96.2016807,12.4671524 96.4416973,13.2832394 C96.681714,14.0993264 97.0304882,14.7844599 97.48802,15.3386399 C97.9455518,15.9080029 98.5043406,16.3350252 99.1643864,16.6197067 C99.8244323,16.9043882 100.570734,17.046729 101.403292,17.046729 C102.24335,17.046729 102.989652,16.9024903 103.642197,16.6140131 C104.294743,16.3255358 104.846031,15.9004114 105.296062,15.3386399 C105.746093,14.7844599 106.091117,14.0993264 106.331134,13.2832394 C106.571151,12.4671524 106.691159,11.5314991 106.691159,10.4762797 Z M98.1743177,10.054951 C98.1743177,9.85757184 98.1743177,9.66398841 98.1743177,9.47420074 C98.1743177,9.28441306 98.1743177,9.09462539 98.1743177,8.90483771 L98.1743177,6.12634615 C98.1743177,5.35201244 98.251198,4.67067468 98.4049587,4.08233289 C98.5587194,3.4939911 98.7931106,3.01382828 99.1081325,2.64184444 C99.3706507,2.34577566 99.691298,2.11992833 100.070074,1.96430244 C100.448851,1.80867654 100.885756,1.7308636 101.38079,1.7308636 C101.868324,1.7308636 102.297729,1.80298291 102.669005,1.94722155 C103.040281,2.09146018 103.353427,2.30781813 103.608445,2.59629539 C103.870963,2.87718115 104.079103,3.22828835 104.232863,3.64961699 C104.386624,4.07094563 104.493506,4.5549042 104.553511,5.10149271 L98.1743177,10.054951 Z M104.598514,10.9203828 C104.598514,11.7326741 104.517883,12.4386842 104.356622,13.0384133 C104.195361,13.6381423 103.942218,14.1239988 103.597194,14.4959826 C103.342177,14.7692769 103.030905,14.9780433 102.663379,15.1222819 C102.295854,15.2665206 101.875825,15.3386399 101.403292,15.3386399 C100.953261,15.3386399 100.548233,15.2722142 100.188208,15.1393628 C99.8281825,15.0065115 99.5206612,14.8110302 99.2656434,14.5529189 C98.9881242,14.2796247 98.7631085,13.9323132 98.5905966,13.5109846 C98.4180846,13.0896559 98.2980763,12.6019016 98.2305716,12.0477216 L104.598514,7.11703781 C104.598514,7.32960001 104.598514,7.59720063 104.598514,7.91983968 C104.598514,8.24247873 104.598514,8.46073455 104.598514,8.57460716 L104.598514,10.9203828 Z" id="Shape"></path>
                    <path d="M120.518369,10.4762797 L120.518369,6.59322383 C120.518369,5.53800436 120.398361,4.60235112 120.158344,3.78626412 C119.918328,2.97017711 119.573304,2.28124785 119.123272,1.71947634 C118.665741,1.15770482 118.108827,0.730682549 117.452531,0.438409529 C116.796236,0.14613651 116.048059,0 115.208001,0 C114.375443,0 113.631016,0.14613651 112.97472,0.438409529 C112.318425,0.730682549 111.765261,1.15770482 111.31523,1.71947634 C110.857698,2.28124785 110.508924,2.97017711 110.268908,3.78626412 C110.028891,4.60235112 109.908883,5.53800436 109.908883,6.59322383 L109.908883,10.4762797 C109.908883,11.5314991 110.028891,12.4671524 110.268908,13.2832394 C110.508924,14.0993264 110.857698,14.7844599 111.31523,15.3386399 C111.772762,15.9080029 112.331551,16.3350252 112.991597,16.6197067 C113.651642,16.9043882 114.397944,17.046729 115.230502,17.046729 C116.07056,17.046729 116.816862,16.9024903 117.469408,16.6140131 C118.121953,16.3255358 118.673241,15.9004114 119.123272,15.3386399 C119.573304,14.7844599 119.918328,14.0993264 120.158344,13.2832394 C120.398361,12.4671524 120.518369,11.5314991 120.518369,10.4762797 Z M112.001528,10.054951 C112.001528,9.85757184 112.001528,9.66398841 112.001528,9.47420074 C112.001528,9.28441306 112.001528,9.09462539 112.001528,8.90483771 L112.001528,6.12634615 C112.001528,5.35201244 112.078408,4.67067468 112.232169,4.08233289 C112.38593,3.4939911 112.620321,3.01382828 112.935343,2.64184444 C113.197861,2.34577566 113.518508,2.11992833 113.897285,1.96430244 C114.276061,1.80867654 114.712966,1.7308636 115.208001,1.7308636 C115.695534,1.7308636 116.124939,1.80298291 116.496215,1.94722155 C116.867491,2.09146018 117.180638,2.30781813 117.435655,2.59629539 C117.698173,2.87718115 117.906313,3.22828835 118.060074,3.64961699 C118.213834,4.07094563 118.320717,4.5549042 118.380721,5.10149271 L112.001528,10.054951 Z M118.425724,10.9203828 C118.425724,11.7326741 118.345093,12.4386842 118.183832,13.0384133 C118.022571,13.6381423 117.769428,14.1239988 117.424404,14.4959826 C117.169387,14.7692769 116.858115,14.9780433 116.49059,15.1222819 C116.123064,15.2665206 115.703035,15.3386399 115.230502,15.3386399 C114.780471,15.3386399 114.375443,15.2722142 114.015418,15.1393628 C113.655393,15.0065115 113.347871,14.8110302 113.092854,14.5529189 C112.815334,14.2796247 112.590319,13.9323132 112.417807,13.5109846 C112.245295,13.0896559 112.125286,12.6019016 112.057782,12.0477216 L118.425724,7.11703781 C118.425724,7.32960001 118.425724,7.59720063 118.425724,7.91983968 C118.425724,8.24247873 118.425724,8.46073455 118.425724,8.57460716 L118.425724,10.9203828 Z" id="Shape"></path>
                    <polygon id="Path" points="130.812834 16.8189838 130.812834 0.239132471 130.644073 0.239132471 124.444892 2.6532317 124.444892 4.57767872 128.73144 2.92652595 128.73144 16.8189838"></polygon>
                    <polygon id="Path" points="144.640044 16.8189838 144.640044 0.239132471 144.471283 0.239132471 138.272102 2.6532317 138.272102 4.57767872 142.55865 2.92652595 142.55865 16.8189838"></polygon>
                    <path d="M162,10.4762797 L162,6.59322383 C162,5.53800436 161.879992,4.60235112 161.639975,3.78626412 C161.399958,2.97017711 161.054934,2.28124785 160.604903,1.71947634 C160.147371,1.15770482 159.590458,0.730682549 158.934162,0.438409529 C158.277867,0.14613651 157.52969,0 156.689631,0 C155.857073,0 155.112647,0.14613651 154.456351,0.438409529 C153.800056,0.730682549 153.246892,1.15770482 152.796861,1.71947634 C152.339329,2.28124785 151.990555,2.97017711 151.750538,3.78626412 C151.510522,4.60235112 151.390513,5.53800436 151.390513,6.59322383 L151.390513,10.4762797 C151.390513,11.5314991 151.510522,12.4671524 151.750538,13.2832394 C151.990555,14.0993264 152.339329,14.7844599 152.796861,15.3386399 C153.254393,15.9080029 153.813181,16.3350252 154.473227,16.6197067 C155.133273,16.9043882 155.879575,17.046729 156.712133,17.046729 C157.552191,17.046729 158.298493,16.9024903 158.951038,16.6140131 C159.603584,16.3255358 160.154872,15.9004114 160.604903,15.3386399 C161.054934,14.7844599 161.399958,14.0993264 161.639975,13.2832394 C161.879992,12.4671524 162,11.5314991 162,10.4762797 Z M153.483159,10.054951 C153.483159,9.85757184 153.483159,9.66398841 153.483159,9.47420074 C153.483159,9.28441306 153.483159,9.09462539 153.483159,8.90483771 L153.483159,6.12634615 C153.483159,5.35201244 153.560039,4.67067468 153.7138,4.08233289 C153.86756,3.4939911 154.101952,3.01382828 154.416973,2.64184444 C154.679492,2.34577566 155.000139,2.11992833 155.378915,1.96430244 C155.757692,1.80867654 156.194597,1.7308636 156.689631,1.7308636 C157.177165,1.7308636 157.60657,1.80298291 157.977846,1.94722155 C158.349121,2.09146018 158.662268,2.30781813 158.917286,2.59629539 C159.179804,2.87718115 159.387944,3.22828835 159.541704,3.64961699 C159.695465,4.07094563 159.802347,4.5549042 159.862352,5.10149271 L153.483159,10.054951 Z M159.907355,10.9203828 C159.907355,11.7326741 159.826724,12.4386842 159.665463,13.0384133 C159.504202,13.6381423 159.251059,14.1239988 158.906035,14.4959826 C158.651017,14.7692769 158.339746,14.9780433 157.97222,15.1222819 C157.604695,15.2665206 157.184666,15.3386399 156.712133,15.3386399 C156.262102,15.3386399 155.857073,15.2722142 155.497048,15.1393628 C155.137023,15.0065115 154.829502,14.8110302 154.574484,14.5529189 C154.296965,14.2796247 154.071949,13.9323132 153.899437,13.5109846 C153.726925,13.0896559 153.606917,12.6019016 153.539412,12.0477216 L159.907355,7.11703781 C159.907355,7.32960001 159.907355,7.59720063 159.907355,7.91983968 C159.907355,8.24247873 159.907355,8.46073455 159.907355,8.57460716 L159.907355,10.9203828 Z" id="Shape"></path>
                </g>
            </g>
        </g>
    </g>
</svg>